<?xml version="1.0" standalone="no"?>
<!DOCTYPE svg PUBLIC "-//W3C//DTD SVG 20010904//EN"
 "http://www.w3.org/TR/2001/REC-SVG-20010904/DTD/svg10.dtd">
<svg version="1.0" xmlns="http://www.w3.org/2000/svg"
 width="5200.000000pt" height="2925.000000pt" viewBox="0 0 5200.000000 2925.000000"
 preserveAspectRatio="xMidYMid meet">
<metadata>
Created by potrace 1.16, written by Peter Selinger 2001-2019
</metadata>
<g transform="translate(0.000000,2925.000000) scale(0.100000,-0.100000)"
fill="#000000" stroke="none">
<path d="M6770 9805 c0 -8 32 -69 39 -75 7 -6 25 -34 47 -75 44 -81 177 -285
185 -285 6 0 7 -9 4 -20 -3 -11 -2 -20 2 -20 5 0 22 -25 38 -56 16 -31 31 -51
33 -46 6 18 42 0 48 -25 4 -13 4 -27 1 -30 -3 -3 -9 6 -13 21 -3 14 -10 26
-15 26 -12 0 -11 -7 7 -45 15 -33 16 -33 34 -15 11 11 16 27 13 39 -8 32 4 25
15 -9 8 -22 8 -29 0 -27 -7 1 -14 -6 -16 -17 -3 -13 0 -16 9 -11 7 5 10 4 5
-3 -4 -6 -13 -9 -22 -5 -12 4 -11 0 3 -25 10 -17 20 -28 23 -24 8 12 54 10 62
-2 5 -7 8 -5 8 6 0 9 -3 18 -7 20 -5 2 -21 30 -37 62 -17 32 -38 61 -48 64
-12 3 -18 14 -18 32 0 15 -6 33 -14 39 -8 6 -19 25 -26 41 -7 17 -19 30 -26
30 -8 0 -14 8 -14 18 0 22 -22 72 -32 72 -5 0 -8 4 -8 9 0 5 -20 42 -45 83
-25 42 -45 81 -45 88 0 7 -7 10 -16 6 -9 -3 -12 -2 -9 5 4 5 -12 43 -36 84
l-43 75 -43 0 c-24 0 -43 -2 -43 -5z"/>
<path d="M7247 7221 c-21 -32 -37 -62 -37 -65 0 -4 -9 -17 -20 -29 -12 -12
-23 -32 -26 -44 -4 -13 -10 -23 -15 -23 -5 0 -9 -7 -9 -15 0 -8 -4 -15 -8 -15
-5 0 -16 -18 -25 -39 -10 -22 -28 -55 -41 -74 l-24 -35 41 -5 c128 -17 147
-18 147 -9 0 6 -10 13 -22 15 -20 4 -19 4 5 6 29 1 38 21 10 22 -15 0 -14 2 3
9 19 7 22 19 27 102 4 51 13 129 21 173 8 44 13 81 12 83 -2 1 -19 -24 -39
-57z"/>
<path d="M6981 6785 c-11 -14 -21 -31 -21 -38 0 -6 -9 -23 -20 -37 -11 -14
-20 -31 -20 -37 0 -7 -3 -13 -8 -13 -4 0 -12 -9 -17 -20 -34 -67 -79 -146 -86
-150 -5 -3 -15 -21 -23 -40 -8 -20 -26 -48 -40 -63 -14 -15 -29 -39 -32 -52
-3 -13 -12 -29 -20 -36 -8 -6 -14 -16 -14 -22 0 -5 -10 -24 -23 -41 -13 -17
-26 -38 -30 -46 -4 -8 -17 -31 -29 -52 -37 -59 -93 -152 -97 -162 -2 -5 -24
-43 -50 -85 -77 -126 -89 -166 -35 -116 16 15 74 49 130 76 l102 49 199 -1
c121 0 190 -4 178 -9 -13 -6 -5 -7 26 -3 34 4 49 1 61 -11 9 -9 27 -17 39 -18
21 -3 24 2 32 57 4 33 6 143 3 245 -2 119 1 224 10 295 7 61 14 157 16 215 2
58 8 108 13 112 6 4 -8 9 -30 10 -44 2 -77 5 -146 12 -40 5 -49 2 -68 -19z"/>
<path d="M6039 5196 c-25 -39 -59 -96 -75 -126 -16 -30 -32 -57 -35 -60 -7 -5
-17 -21 -98 -161 -30 -52 -58 -95 -63 -97 -12 -6 -9 -30 5 -36 6 -3 4 -4 -5
-3 -12 1 -29 -16 -51 -53 l-33 -55 -387 0 c-421 0 -400 2 -425 -57 l-12 -28
48 -1 c26 0 215 0 420 1 351 1 373 0 379 -17 3 -10 20 -38 37 -63 17 -25 37
-58 44 -74 10 -23 15 -26 27 -16 9 8 15 8 15 2 0 -6 -5 -12 -11 -14 -7 -2 -3
-18 11 -43 29 -54 44 -79 51 -85 3 -3 18 -27 33 -55 65 -118 162 -265 175
-265 8 0 12 -3 8 -6 -3 -4 1 -21 11 -38 l16 -31 6 35 c4 27 7 31 13 17 4 -10
7 -27 7 -36 0 -15 15 -20 88 -30 48 -7 116 -17 152 -22 70 -10 181 -20 141
-12 -44 8 -1 21 58 18 55 -4 56 -4 9 3 -53 9 -75 22 -36 22 24 0 25 3 34 88
12 105 -2 186 -38 214 -13 10 -17 18 -10 18 6 0 12 7 12 15 0 15 -19 55 -31
65 -4 3 -10 36 -14 74 -7 65 -9 71 -55 117 -27 27 -53 49 -59 49 -5 0 -27 18
-49 40 -21 22 -42 40 -46 40 -10 0 -66 56 -66 66 0 4 -18 25 -40 46 -21 21
-37 45 -34 52 3 7 -2 19 -11 26 -8 7 -22 38 -31 68 -18 59 -39 92 -46 70 -3
-7 -10 42 -18 109 -13 119 -8 183 10 138 8 -18 9 -18 9 -2 1 11 -8 21 -19 24
-26 7 -25 13 6 79 14 31 24 57 23 58 -2 2 -25 -29 -50 -68z"/>
<path d="M11639 1448 c-13 -18 -27 -34 -31 -36 -4 -2 -8 -8 -8 -14 0 -6 -31
-62 -70 -124 -38 -63 -70 -119 -70 -124 0 -6 -3 -10 -8 -10 -7 0 -9 -3 -51
-83 -14 -26 -29 -47 -33 -47 -4 0 -8 -5 -8 -10 0 -7 45 -10 127 -8 l126 3 25
45 c14 25 30 48 35 52 6 3 10 28 9 55 0 27 4 55 9 63 7 10 8 3 3 -22 -8 -48
-2 -48 26 -1 16 28 18 38 8 44 -7 4 -9 11 -5 15 3 4 13 2 20 -4 20 -17 55 63
38 89 -6 10 -11 26 -11 34 0 25 19 17 26 -10 l6 -26 14 27 c18 34 18 34 -6 34
-11 0 -20 5 -20 10 0 6 -7 10 -15 10 -8 0 -15 -7 -15 -15 0 -11 -11 -15 -40
-15 -40 0 -40 0 -40 38 0 60 -13 69 -41 30z"/>
</g>
</svg>
